<svg width="183" height="35" viewBox="0 0 183 35" fill="none" xmlns="http://www.w3.org/2000/svg">
<path d="M7.46189 6.83888C8.48127 6.83888 9.33755 5.98116 9.33755 4.96006C9.33755 3.93896 8.48127 3.08124 7.46189 3.08124C6.4425 3.08124 5.58622 3.93896 5.58622 4.96006C5.58622 5.98116 6.4425 6.83888 7.46189 6.83888ZM6.4425 20.1132C6.4425 20.3991 6.68716 20.6442 6.97258 20.6442C7.25801 20.6442 7.50266 20.3991 7.50266 20.1132C7.50266 19.8273 7.25801 19.5822 6.97258 19.5822C6.68716 19.5822 6.4425 19.8273 6.4425 20.1132ZM10.1938 9.20783C10.6424 9.20783 10.9686 8.84024 10.9686 8.4318C10.9686 7.98251 10.6016 7.65576 10.1938 7.65576C9.74531 7.65576 9.4191 8.02336 9.4191 8.4318C9.4191 8.84024 9.74531 9.20783 10.1938 9.20783ZM4.03676 16.2738C5.05614 16.2738 5.91243 15.4161 5.91243 14.395C5.91243 13.3739 5.05614 12.5162 4.03676 12.5162C3.01738 12.5162 2.16109 13.3739 2.16109 14.395C2.20187 15.4161 3.01738 16.2738 4.03676 16.2738ZM1.34559 11.8627C1.79412 11.8627 2.12032 11.4951 2.12032 11.0867C2.12032 10.6374 1.75334 10.3106 1.34559 10.3106C0.897058 10.3106 0.570855 10.6782 0.570855 11.0867C0.570855 11.5359 0.897058 11.8627 1.34559 11.8627ZM1.06016 13.5781C1.06016 13.2922 0.815507 13.0472 0.53008 13.0472C0.244652 13.0472 0 13.2922 0 13.5781C0 13.864 0.244652 14.1091 0.53008 14.1091C0.815507 14.1091 1.06016 13.864 1.06016 13.5781ZM3.54745 9.16699C4.28141 9.16699 4.85227 8.59517 4.85227 7.85998C4.85227 7.12479 4.28141 6.55297 3.54745 6.55297C2.8135 6.55297 2.24264 7.12479 2.24264 7.85998C2.24264 8.59517 2.8135 9.16699 3.54745 9.16699ZM19.4091 1.97845C19.6945 1.97845 19.9391 1.73338 19.9391 1.44748C19.9391 1.16157 19.6945 0.916504 19.4091 0.916504C19.1236 0.916504 18.879 1.16157 18.879 1.44748C18.879 1.73338 19.1236 1.97845 19.4091 1.97845ZM5.13769 19.909C5.13769 18.6428 4.11831 17.6217 2.85427 17.6217C1.59024 17.6217 0.570855 18.6428 0.570855 19.909C0.570855 21.1751 1.59024 22.1962 2.85427 22.1962C4.11831 22.1962 5.13769 21.1751 5.13769 19.909ZM28.0127 10.2698C29.032 10.2698 29.8883 9.41205 29.8883 8.39095C29.8883 7.36985 29.032 6.51213 28.0127 6.51213C26.9933 6.51213 26.137 7.36985 26.137 8.39095C26.137 9.41205 26.9525 10.2698 28.0127 10.2698ZM23.8128 23.1765C23.8128 23.9117 24.3837 24.4835 25.1176 24.4835C25.8516 24.4835 26.4224 23.9117 26.4224 23.1765C26.4224 22.4413 25.8516 21.8695 25.1176 21.8695C24.3837 21.8695 23.8128 22.4413 23.8128 23.1765ZM25.1176 5.77694C25.8516 5.77694 26.4224 5.20512 26.4224 4.46993C26.4224 3.73474 25.8516 3.16292 25.1176 3.16292C24.3837 3.16292 23.8128 3.73474 23.8128 4.46993C23.8128 5.20512 24.3837 5.77694 25.1176 5.77694ZM22.2226 9.16699C22.9565 9.16699 23.5274 8.59517 23.5274 7.85998C23.5274 7.12479 22.9565 6.55297 22.2226 6.55297C21.4886 6.55297 20.9178 7.12479 20.9178 7.85998C20.9178 8.59517 21.4886 9.16699 22.2226 9.16699ZM26.9117 13.7824C26.9117 15.0485 27.9311 16.0696 29.1951 16.0696C30.4592 16.0696 31.4786 15.0485 31.4786 13.7824C31.4786 12.5162 30.4592 11.4951 29.1951 11.4951C27.9311 11.4951 26.9117 12.5162 26.9117 13.7824ZM25.6069 13.5781C25.6069 13.2922 25.3623 13.0472 25.0768 13.0472C24.7914 13.0472 24.5468 13.2922 24.5468 13.5781C24.5468 13.864 24.7914 14.1091 25.0768 14.1091C25.3623 14.1091 25.6069 13.864 25.6069 13.5781ZM21.8556 2.99955C22.3041 2.99955 22.6303 2.63195 22.6303 2.22351C22.6303 1.81507 22.2633 1.44748 21.8556 1.44748C21.4071 1.44748 21.0809 1.81507 21.0809 2.22351C21.0809 2.63195 21.4478 2.99955 21.8556 2.99955ZM24.3021 11.8627C24.7506 11.8627 25.0768 11.4951 25.0768 11.0867C25.0768 10.6374 24.7099 10.3106 24.3021 10.3106C23.8944 10.3106 23.5274 10.6782 23.5274 11.0867C23.5274 11.5359 23.8944 11.8627 24.3021 11.8627ZM8.23662 10.5148C8.23662 9.77965 7.66576 9.20783 6.93181 9.20783C6.19785 9.20783 5.627 9.77965 5.627 10.5148C5.627 11.25 6.19785 11.8219 6.93181 11.8219C7.66576 11.8219 8.23662 11.25 8.23662 10.5148ZM21.8556 24.4835C21.4071 24.4835 21.0809 24.8511 21.0809 25.2595C21.0809 25.7088 21.4478 26.0356 21.8556 26.0356C22.3041 26.0356 22.6303 25.668 22.6303 25.2595C22.6303 24.8511 22.3041 24.4835 21.8556 24.4835ZM19.2052 27.6285C17.9412 27.6285 16.9218 28.6496 16.9218 29.9157C16.9218 31.1819 17.9412 32.203 19.2052 32.203C20.4692 32.203 21.4886 31.1819 21.4886 29.9157C21.4886 28.6496 20.4692 27.6285 19.2052 27.6285ZM24.5875 26.8524C23.5681 26.8524 22.7119 27.7102 22.7119 28.7313C22.7119 29.7524 23.5681 30.6101 24.5875 30.6101C25.6069 30.6101 26.4632 29.7524 26.4632 28.7313C26.4632 27.7102 25.6069 26.8524 24.5875 26.8524ZM18.879 26.0356C18.879 26.3215 19.1236 26.5665 19.4091 26.5665C19.6945 26.5665 19.9391 26.3215 19.9391 26.0356C19.9391 25.7497 19.6945 25.5046 19.4091 25.5046C19.1236 25.5454 18.879 25.7497 18.879 26.0356ZM31.5193 19.5822C31.2339 19.5822 30.9893 19.8273 30.9893 20.1132C30.9893 20.3991 31.2339 20.6442 31.5193 20.6442C31.8048 20.6442 32.0494 20.3991 32.0494 20.1132C32.0494 19.8273 31.764 19.5822 31.5193 19.5822ZM30.7038 21.8286C30.2553 21.8286 29.9291 22.1962 29.9291 22.6047C29.9291 23.0539 30.2961 23.3807 30.7038 23.3807C31.1524 23.3807 31.4786 23.0131 31.4786 22.6047C31.4786 22.1554 31.1524 21.8286 30.7038 21.8286ZM18.3489 6.83888C19.3683 6.83888 20.2246 5.98116 20.2246 4.96006C20.2246 3.93896 19.3683 3.08124 18.3489 3.08124C17.3295 3.08124 16.4732 3.93896 16.4732 4.96006C16.4732 5.98116 17.3295 6.83888 18.3489 6.83888ZM28.0127 17.4175C26.9933 17.4175 26.137 18.2752 26.137 19.2963C26.137 20.3174 26.9933 21.1751 28.0127 21.1751C29.032 21.1751 29.8883 20.3174 29.8883 19.2963C29.8476 18.2752 29.032 17.4175 28.0127 17.4175ZM4.03676 23.4215C3.01738 23.4215 2.16109 24.2793 2.16109 25.3004C2.16109 26.3215 3.01738 27.1792 4.03676 27.1792C5.05614 27.1792 5.91243 26.3215 5.91243 25.3004C5.91243 24.2793 5.09692 23.4215 4.03676 23.4215ZM28.502 24.5243C27.768 24.5243 27.1972 25.0961 27.1972 25.8313C27.1972 26.5665 27.768 27.1383 28.502 27.1383C29.2359 27.1383 29.8068 26.5665 29.8068 25.8313C29.8068 25.0961 29.2359 24.5243 28.502 24.5243ZM7.74732 21.8286C7.29879 21.8286 6.97258 22.1962 6.97258 22.6047C6.97258 23.0539 7.33956 23.3807 7.74732 23.3807C8.15507 23.3807 8.52205 23.0131 8.52205 22.6047C8.52205 22.1554 8.15507 21.8286 7.74732 21.8286ZM9.82686 24.5243C9.0929 24.5243 8.52205 25.0961 8.52205 25.8313C8.52205 26.5665 9.0929 27.1383 9.82686 27.1383C10.5608 27.1383 11.1317 26.5665 11.1317 25.8313C11.1317 25.0961 10.5608 24.5243 9.82686 24.5243ZM10.1938 30.6918C9.74531 30.6918 9.4191 31.0594 9.4191 31.4678C9.4191 31.8763 9.78608 32.2438 10.1938 32.2438C10.6424 32.2438 10.9686 31.8763 10.9686 31.4678C10.9686 31.0594 10.6016 30.6918 10.1938 30.6918ZM6.93181 27.9144C6.19785 27.9144 5.627 28.4862 5.627 29.2214C5.627 29.9566 6.19785 30.5284 6.93181 30.5284C7.66576 30.5284 8.23662 29.9566 8.23662 29.2214C8.23662 28.4862 7.66576 27.9144 6.93181 27.9144ZM12.1511 7.65576C12.1511 7.94167 12.3957 8.18673 12.6811 8.18673C12.9666 8.18673 13.2112 7.94167 13.2112 7.65576C13.2112 7.36985 12.9666 7.12479 12.6811 7.12479C12.3549 7.12479 12.1511 7.36985 12.1511 7.65576ZM15.1277 3.73474C15.1277 2.46858 14.1083 1.44748 12.8442 1.44748C11.5802 1.44748 10.5608 2.46858 10.5608 3.73474C10.5608 5.0009 11.5802 6.022 12.8442 6.022C14.1083 6.06285 15.1277 5.04175 15.1277 3.73474ZM12.6404 31.7129C12.3549 31.7129 12.1103 31.9579 12.1103 32.2438C12.1103 32.5298 12.3549 32.7748 12.6404 32.7748C12.9258 32.7748 13.1704 32.5298 13.1704 32.2438C13.1704 31.9579 12.9258 31.7129 12.6404 31.7129ZM13.7005 26.8524C12.6811 26.8524 11.8249 27.7102 11.8249 28.7313C11.8249 29.7524 12.6811 30.6101 13.7005 30.6101C14.7199 30.6101 15.5762 29.7524 15.5762 28.7313C15.5762 27.7102 14.7199 26.8524 13.7005 26.8524Z" fill="white"/>
<path d="M40.9128 17.3904C40.9128 11.0164 44.7373 6.13478 51.1735 6.13478C56.7702 6.13478 60.4392 9.49281 61.0921 14.903H58.5425C58.045 10.7365 55.4643 8.31128 51.1735 8.31128C46.0743 8.31128 43.4625 12.1046 43.4625 17.3904C43.4625 22.7073 46.0743 26.5006 51.1735 26.5006C55.4643 26.5006 58.045 24.0443 58.5425 19.8778H61.0921C60.4392 25.3191 56.7702 28.6771 51.1735 28.6771C44.7373 28.6771 40.9128 23.7956 40.9128 17.3904ZM63.0495 20.6241C63.0495 16.1467 66.2832 12.6021 71.227 12.6021C76.1397 12.6021 79.3733 16.1467 79.3733 20.6241C79.3733 25.1636 76.1397 28.6771 71.227 28.6771C66.2832 28.6771 63.0495 25.1636 63.0495 20.6241ZM65.5992 20.6241C65.5992 23.8577 67.558 26.5006 71.227 26.5006C74.8337 26.5006 76.7926 23.8577 76.7926 20.6241C76.7926 17.4215 74.8337 14.8097 71.227 14.8097C67.558 14.8097 65.5992 17.4215 65.5992 20.6241ZM90.0744 14.8097C86.8096 14.8097 84.5087 17.3593 84.5087 21.5258V28.3662H81.9591V12.913H84.5087V15.587L84.1045 17.3593H84.8197C85.4415 14.561 87.4004 12.6021 90.7584 12.6021C94.2719 12.6021 96.5417 14.6542 96.5417 18.914V28.3662H93.9921V19.256C93.9921 16.0534 92.7173 14.8097 90.0744 14.8097ZM105.986 27.6511L110.774 12.913H113.262L108.225 28.3662H103.001L97.9331 12.913H100.421L105.24 27.6511H105.986ZM113.996 20.4375C113.996 15.4627 117.105 12.6021 121.489 12.6021C125.842 12.6021 128.703 15.3694 128.703 20.1266V21.1216H116.514C116.67 24.0443 118.038 26.5317 121.862 26.5317C124.412 26.5317 126.122 25.288 126.682 22.956H129.231C128.672 25.3502 126.775 28.6771 121.862 28.6771C116.328 28.6771 113.996 24.8838 113.996 20.4375ZM116.514 19.1938H126.184C126.184 16.7375 124.567 14.7475 121.489 14.7475C118.442 14.7475 116.514 16.7375 116.514 19.1938ZM134.362 28.3662H131.812V14.7475C131.812 13.2861 132.496 12.571 133.958 12.6332L142.539 12.913V15.1206L134.362 14.8097V28.3662ZM160.469 12.913H161.837V15.1206H160.531C159.691 15.1206 159.132 15.3072 158.541 15.7114C159.163 16.5509 159.567 17.6392 159.567 18.9762C159.567 22.3031 156.955 24.3863 152.291 26.0964C155.898 25.5057 159.38 26.0031 159.38 29.4234C159.38 33.5276 155.152 34.0562 144.798 34.0562V31.8797C153.659 31.8797 156.831 31.6621 156.831 29.2368C156.831 25.8166 150.022 27.4645 146.166 28.5839L145.637 26.8116C148.187 26.1586 150.612 25.4435 153.006 24.6972V23.9821C148.032 25.2569 143.679 23.6401 143.679 18.8518C143.679 14.592 147.161 12.6021 151.607 12.6021C153.473 12.6021 155.401 13.0685 156.862 14.0946C158.479 13.0685 159.07 12.913 160.469 12.913ZM151.638 23.0493C154.903 23.0493 157.017 21.93 157.017 18.914C157.017 15.929 154.903 14.8097 151.638 14.8097C148.405 14.8097 146.228 15.929 146.228 18.914C146.228 21.93 148.405 23.0493 151.638 23.0493ZM162.665 20.4375C162.665 15.4627 165.774 12.6021 170.158 12.6021C174.511 12.6021 177.372 15.3694 177.372 20.1266V21.1216H165.183C165.339 24.0443 166.707 26.5317 170.531 26.5317C173.081 26.5317 174.791 25.288 175.351 22.956H177.9C177.341 25.3502 175.444 28.6771 170.531 28.6771C164.997 28.6771 162.665 24.8838 162.665 20.4375ZM165.183 19.1938H174.853C174.853 16.7375 173.236 14.7475 170.158 14.7475C167.111 14.7475 165.183 16.7375 165.183 19.1938Z" fill="white"/>
<path d="M61.0921 14.903V14.9808H61.1799L61.1694 14.8937L61.0921 14.903ZM58.5425 14.903L58.4653 14.9122L58.4734 14.9808H58.5425V14.903ZM58.5425 19.8778V19.8H58.4734L58.4653 19.8686L58.5425 19.8778ZM61.0921 19.8778L61.1694 19.8871L61.1798 19.8H61.0921V19.8778ZM40.9128 17.3904H40.9906C40.9906 14.2185 41.9422 11.4239 43.6882 9.42349C45.4332 7.42423 47.9766 6.21259 51.1735 6.21259V6.13478V6.05696C47.9342 6.05696 45.3472 7.28612 43.571 9.32116C41.7957 11.355 40.835 14.1883 40.835 17.3904H40.9128ZM51.1735 6.13478V6.21259C53.9559 6.21259 56.2529 7.04704 57.9349 8.54812C59.617 10.0493 60.6903 12.2228 61.0149 14.9123L61.0921 14.903L61.1694 14.8937C60.841 12.173 59.7534 9.96241 58.0385 8.43201C56.3236 6.90153 53.9878 6.05696 51.1735 6.05696V6.13478ZM61.0921 14.903V14.8252H58.5425V14.903V14.9808H61.0921V14.903ZM58.5425 14.903L58.6198 14.8938C58.3694 12.7966 57.5935 11.1296 56.3328 9.98705C55.0718 8.84428 53.3338 8.23347 51.1735 8.23347V8.31128V8.38909C53.304 8.38909 55.0018 8.99091 56.2283 10.1024C57.4549 11.214 58.2182 12.8429 58.4653 14.9122L58.5425 14.903ZM51.1735 8.31128V8.23347C48.6026 8.23347 46.6516 9.19076 45.3451 10.82C44.0404 12.4469 43.3846 14.7358 43.3846 17.3904H43.4625H43.5403C43.5403 14.7592 44.1904 12.5086 45.4665 10.9174C46.7406 9.32847 48.6451 8.38909 51.1735 8.38909V8.31128ZM43.4625 17.3904H43.3846C43.3846 20.0605 44.0403 22.3571 45.345 23.988C46.6515 25.6211 48.6026 26.5784 51.1735 26.5784V26.5006V26.4228C48.6451 26.4228 46.7407 25.4835 45.4665 23.8907C44.1905 22.2957 43.5403 20.0372 43.5403 17.3904H43.4625ZM51.1735 26.5006V26.5784C53.3341 26.5784 55.072 25.9597 56.333 24.8091C57.5936 23.6588 58.3694 21.9842 58.6198 19.8871L58.5425 19.8778L58.4653 19.8686C58.2182 21.938 57.4549 23.5747 56.2281 24.6942C55.0015 25.8134 53.3038 26.4228 51.1735 26.4228V26.5006ZM58.5425 19.8778V19.9557H61.0921V19.8778V19.8H58.5425V19.8778ZM61.0921 19.8778L61.0149 19.8686C60.6903 22.5737 59.6169 24.755 57.9348 26.26C56.2529 27.7649 53.9559 28.5993 51.1735 28.5993V28.6771V28.755C53.9878 28.755 56.3237 27.9104 58.0386 26.376C59.7535 24.8416 60.8411 22.6232 61.1694 19.8871L61.0921 19.8778ZM51.1735 28.6771V28.5993C47.9766 28.5993 45.4333 27.3877 43.6882 25.3846C41.9422 23.3803 40.9906 20.5779 40.9906 17.3904H40.9128H40.835C40.835 20.608 41.7957 23.449 43.5709 25.4868C45.3472 27.5258 47.9342 28.755 51.1735 28.755V28.6771ZM63.0495 20.6241H63.1273C63.1273 16.1887 66.3272 12.6799 71.227 12.6799V12.6021V12.5243C66.2392 12.5243 62.9717 16.1047 62.9717 20.6241H63.0495ZM71.227 12.6021V12.6799C76.0955 12.6799 79.2955 16.1885 79.2955 20.6241H79.3733H79.4511C79.4511 16.1049 76.1838 12.5243 71.227 12.5243V12.6021ZM79.3733 20.6241H79.2955C79.2955 25.1219 76.0955 28.5993 71.227 28.5993V28.6771V28.755C76.1838 28.755 79.4511 25.2054 79.4511 20.6241H79.3733ZM71.227 28.6771V28.5993C66.3272 28.5993 63.1273 25.1217 63.1273 20.6241H63.0495H62.9717C62.9717 25.2056 66.2392 28.755 71.227 28.755V28.6771ZM65.5992 20.6241H65.5213C65.5213 22.2561 66.0157 23.7449 66.9791 24.8267C67.9436 25.9098 69.3724 26.5784 71.227 26.5784V26.5006V26.4228C69.4125 26.4228 68.0275 25.77 67.0953 24.7232C66.162 23.6752 65.677 22.2257 65.677 20.6241H65.5992ZM71.227 26.5006V26.5784C73.0508 26.5784 74.4641 25.9095 75.4206 24.8265C76.3761 23.7447 76.8704 22.2561 76.8704 20.6241H76.7926H76.7148C76.7148 22.2257 76.2297 23.6753 75.304 24.7235C74.3794 25.7703 73.0099 26.4228 71.227 26.4228V26.5006ZM76.7926 20.6241H76.8704C76.8704 19.0074 76.3759 17.5342 75.4204 16.4641C74.4637 15.3928 73.0505 14.7319 71.227 14.7319V14.8097V14.8875C73.0102 14.8875 74.3798 15.5325 75.3043 16.5678C76.2298 17.6042 76.7148 19.0382 76.7148 20.6241H76.7926ZM71.227 14.8097V14.7319C69.3728 14.7319 67.9439 15.3925 66.9794 16.4639C66.0158 17.534 65.5213 19.0074 65.5213 20.6241H65.5992H65.677C65.677 19.0382 66.1619 17.6044 67.095 16.568C68.0271 15.5328 69.4122 14.8875 71.227 14.8875V14.8097ZM84.5087 28.3662V28.444H84.5866V28.3662H84.5087ZM81.9591 28.3662H81.8813V28.444H81.9591V28.3662ZM81.9591 12.913V12.8352H81.8813V12.913H81.9591ZM84.5087 12.913H84.5866V12.8352H84.5087V12.913ZM84.5087 15.587L84.5846 15.6043L84.5866 15.5958V15.587H84.5087ZM84.1045 17.3593L84.0287 17.342L84.007 17.4371H84.1045V17.3593ZM84.8197 17.3593V17.4371H84.8821L84.8956 17.3762L84.8197 17.3593ZM96.5417 28.3662V28.444H96.6195V28.3662H96.5417ZM93.9921 28.3662H93.9143V28.444H93.9921V28.3662ZM90.0744 14.8097V14.7319C88.4203 14.7319 87.0068 15.3785 86.008 16.555C85.01 17.7304 84.4309 19.4287 84.4309 21.5258H84.5087H84.5866C84.5866 19.4564 85.1579 17.7967 86.1266 16.6557C87.0944 15.5157 88.4637 14.8875 90.0744 14.8875V14.8097ZM84.5087 21.5258H84.4309V28.3662H84.5087H84.5866V21.5258H84.5087ZM84.5087 28.3662V28.2884H81.9591V28.3662V28.444H84.5087V28.3662ZM81.9591 28.3662H82.0369V12.913H81.9591H81.8813V28.3662H81.9591ZM81.9591 12.913V12.9908H84.5087V12.913V12.8352H81.9591V12.913ZM84.5087 12.913H84.4309V15.587H84.5087H84.5866V12.913H84.5087ZM84.5087 15.587L84.4329 15.5697L84.0287 17.342L84.1045 17.3593L84.1804 17.3766L84.5846 15.6043L84.5087 15.587ZM84.1045 17.3593V17.4371H84.8197V17.3593V17.2815H84.1045V17.3593ZM84.8197 17.3593L84.8956 17.3762C85.2037 15.99 85.8416 14.817 86.8134 13.9906C87.7846 13.1647 89.0952 12.6799 90.7584 12.6799V12.6021V12.5243C89.0636 12.5243 87.7157 13.019 86.7126 13.872C85.71 14.7247 85.0575 15.9302 84.7437 17.3424L84.8197 17.3593ZM90.7584 12.6021V12.6799C92.5001 12.6799 93.9234 13.1882 94.9116 14.2146C95.9001 15.2413 96.4639 16.7974 96.4639 18.914H96.5417H96.6195C96.6195 16.7708 96.0484 15.1709 95.0237 14.1067C93.9986 13.042 92.5302 12.5243 90.7584 12.5243V12.6021ZM96.5417 18.914H96.4639V28.3662H96.5417H96.6195V18.914H96.5417ZM96.5417 28.3662V28.2884H93.9921V28.3662V28.444H96.5417V28.3662ZM93.9921 28.3662H94.0699V19.256H93.9921H93.9143V28.3662H93.9921ZM93.9921 19.256H94.0699C94.0699 17.6469 93.7501 16.5118 93.0818 15.7794C92.4119 15.0454 91.4067 14.7319 90.0744 14.7319V14.8097V14.8875C91.385 14.8875 92.3386 15.1959 92.9668 15.8843C93.5967 16.5745 93.9143 17.6625 93.9143 19.256H93.9921ZM105.986 27.6511V27.7289H106.043L106.06 27.6751L105.986 27.6511ZM110.774 12.913V12.8352H110.718L110.7 12.889L110.774 12.913ZM113.262 12.913L113.336 12.9371L113.369 12.8352H113.262V12.913ZM108.225 28.3662V28.444H108.281L108.299 28.3903L108.225 28.3662ZM103.001 28.3662L102.927 28.3905L102.945 28.444H103.001V28.3662ZM97.9331 12.913V12.8352H97.8257L97.8592 12.9373L97.9331 12.913ZM100.421 12.913L100.494 12.8888L100.477 12.8352H100.421V12.913ZM105.24 27.6511L105.166 27.6753L105.184 27.7289H105.24V27.6511ZM105.986 27.6511L106.06 27.6751L110.848 12.9371L110.774 12.913L110.7 12.889L105.912 27.627L105.986 27.6511ZM110.774 12.913V12.9908H113.262V12.913V12.8352H110.774V12.913ZM113.262 12.913L113.188 12.8889L108.151 28.3421L108.225 28.3662L108.299 28.3903L113.336 12.9371L113.262 12.913ZM108.225 28.3662V28.2884H103.001V28.3662V28.444H108.225V28.3662ZM103.001 28.3662L103.075 28.342L98.007 12.8888L97.9331 12.913L97.8592 12.9373L102.927 28.3905L103.001 28.3662ZM97.9331 12.913V12.9908H100.421V12.913V12.8352H97.9331V12.913ZM100.421 12.913L100.347 12.9372L105.166 27.6753L105.24 27.6511L105.314 27.6269L100.494 12.8888L100.421 12.913ZM105.24 27.6511V27.7289H105.986V27.6511V27.5733H105.24V27.6511ZM128.703 21.1216V21.1994H128.781V21.1216H128.703ZM116.514 21.1216V21.0437H116.432L116.437 21.1257L116.514 21.1216ZM126.682 22.956V22.8782H126.62L126.606 22.9379L126.682 22.956ZM129.231 22.956L129.307 22.9738L129.329 22.8782H129.231V22.956ZM116.514 19.1938H116.436V19.2716H116.514V19.1938ZM126.184 19.1938V19.2716H126.262V19.1938H126.184ZM113.996 20.4375H114.074C114.074 17.9666 114.845 16.0288 116.154 14.709C117.462 13.3891 119.314 12.6799 121.489 12.6799V12.6021V12.5243C119.28 12.5243 117.385 13.2453 116.043 14.5995C114.701 15.9536 113.918 17.9336 113.918 20.4375H113.996ZM121.489 12.6021V12.6799C123.649 12.6799 125.431 13.366 126.673 14.6348C127.915 15.9037 128.625 17.7636 128.625 20.1266H128.703H128.781C128.781 17.7323 128.06 15.83 126.784 14.526C125.507 13.2218 123.682 12.5243 121.489 12.5243V12.6021ZM128.703 20.1266H128.625V21.1216H128.703H128.781V20.1266H128.703ZM128.703 21.1216V21.0437H116.514V21.1216V21.1994H128.703V21.1216ZM116.514 21.1216L116.437 21.1257C116.515 22.5964 116.898 23.9681 117.753 24.9731C118.61 25.9808 119.932 26.6095 121.862 26.6095V26.5317V26.4539C119.968 26.4539 118.694 25.8389 117.872 24.8723C117.047 23.9029 116.669 22.5694 116.592 21.1174L116.514 21.1216ZM121.862 26.5317V26.6095C123.15 26.6095 124.232 26.2955 125.064 25.681C125.897 25.0661 126.474 24.1552 126.757 22.9742L126.682 22.956L126.606 22.9379C126.33 24.0888 125.771 24.9658 124.972 25.5558C124.172 26.1461 123.125 26.4539 121.862 26.4539V26.5317ZM126.682 22.956V23.0339H129.231V22.956V22.8782H126.682V22.956ZM129.231 22.956L129.156 22.9383C128.878 24.1253 128.27 25.5408 127.125 26.6587C125.982 27.7749 124.299 28.5993 121.862 28.5993V28.6771V28.755C124.338 28.755 126.06 27.9159 127.234 26.7701C128.405 25.626 129.025 24.1809 129.307 22.9738L129.231 22.956ZM121.862 28.6771V28.5993C119.114 28.5993 117.171 27.6585 115.913 26.1744C114.653 24.6882 114.074 22.6481 114.074 20.4375H113.996H113.918C113.918 22.6732 114.504 24.7529 115.794 26.275C117.086 27.7992 119.076 28.755 121.862 28.755V28.6771ZM116.514 19.1938V19.2716H126.184V19.1938V19.116H116.514V19.1938ZM126.184 19.1938H126.262C126.262 17.9486 125.852 16.8163 125.047 15.995C124.241 15.1733 123.046 14.6697 121.489 14.6697V14.7475V14.8253C123.011 14.8253 124.163 15.3167 124.935 16.104C125.708 16.8918 126.106 17.9827 126.106 19.1938H126.184ZM121.489 14.7475V14.6697C118.404 14.6697 116.436 16.6894 116.436 19.1938H116.514H116.592C116.592 16.7855 118.48 14.8253 121.489 14.8253V14.7475ZM134.362 28.3662V28.444H134.44V28.3662H134.362ZM131.812 28.3662H131.734V28.444H131.812V28.3662ZM133.958 12.6332L133.954 12.7109L133.955 12.711L133.958 12.6332ZM142.539 12.913H142.617V12.8377L142.542 12.8353L142.539 12.913ZM142.539 15.1206L142.536 15.1984L142.617 15.2015V15.1206H142.539ZM134.362 14.8097L134.365 14.7319L134.284 14.7289V14.8097H134.362ZM134.362 28.3662V28.2884H131.812V28.3662V28.444H134.362V28.3662ZM131.812 28.3662H131.89V14.7475H131.812H131.734V28.3662H131.812ZM131.812 14.7475H131.89C131.89 14.0273 132.059 13.5072 132.392 13.174C132.724 12.8415 133.236 12.6804 133.954 12.7109L133.958 12.6332L133.961 12.5555C133.218 12.5238 132.657 12.6891 132.282 13.064C131.908 13.4382 131.734 14.0064 131.734 14.7475H131.812ZM133.958 12.6332L133.955 12.711L142.537 12.9908L142.539 12.913L142.542 12.8353L133.96 12.5554L133.958 12.6332ZM142.539 12.913H142.461V15.1206H142.539H142.617V12.913H142.539ZM142.539 15.1206L142.542 15.0429L134.365 14.7319L134.362 14.8097L134.359 14.8875L142.536 15.1984L142.539 15.1206ZM134.362 14.8097H134.284V28.3662H134.362H134.44V14.8097H134.362ZM161.837 12.913H161.915V12.8352H161.837V12.913ZM161.837 15.1206V15.1984H161.915V15.1206H161.837ZM158.541 15.7114L158.497 15.6472L158.43 15.6928L158.478 15.7577L158.541 15.7114ZM152.291 26.0964L152.265 26.0234L152.304 26.1732L152.291 26.0964ZM144.798 34.0562H144.72V34.134H144.798V34.0562ZM144.798 31.8797V31.8019H144.72V31.8797H144.798ZM146.166 28.5839L146.091 28.6061L146.114 28.6801L146.188 28.6586L146.166 28.5839ZM145.637 26.8116L145.618 26.7362L145.54 26.7563L145.563 26.8338L145.637 26.8116ZM153.006 24.6972L153.03 24.7715L153.084 24.7545V24.6972H153.006ZM153.006 23.9821H153.084V23.8818L152.987 23.9067L153.006 23.9821ZM156.862 14.0946L156.817 14.1582L156.86 14.1881L156.904 14.1603L156.862 14.0946ZM160.469 12.913V12.9908H161.837V12.913V12.8352H160.469V12.913ZM161.837 12.913H161.759V15.1206H161.837H161.915V12.913H161.837ZM161.837 15.1206V15.0428H160.531V15.1206V15.1984H161.837V15.1206ZM160.531 15.1206V15.0428C159.676 15.0428 159.101 15.2339 158.497 15.6472L158.541 15.7114L158.585 15.7756C159.162 15.3805 159.707 15.1984 160.531 15.1984V15.1206ZM158.541 15.7114L158.478 15.7577C159.09 16.5837 159.489 17.6557 159.489 18.9762H159.567H159.645C159.645 17.6226 159.235 16.5181 158.604 15.6651L158.541 15.7114ZM159.567 18.9762H159.489C159.489 20.6157 158.847 21.9483 157.625 23.0856C156.4 24.2256 154.593 25.1696 152.265 26.0234L152.291 26.0964L152.318 26.1695C154.654 25.3131 156.484 24.3604 157.731 23.1996C158.981 22.0361 159.645 20.6635 159.645 18.9762H159.567ZM152.291 26.0964L152.304 26.1732C154.103 25.8786 155.859 25.8577 157.162 26.329C157.812 26.5641 158.346 26.9205 158.717 27.4238C159.089 27.9266 159.303 28.582 159.303 29.4234H159.38H159.458C159.458 28.5546 159.237 27.8653 158.843 27.3313C158.449 26.7978 157.886 26.4255 157.215 26.1826C155.875 25.6978 154.087 25.7235 152.279 26.0196L152.291 26.0964ZM159.38 29.4234H159.303C159.303 30.4353 159.042 31.2178 158.5 31.827C157.956 32.438 157.12 32.8833 155.951 33.2039C153.612 33.8457 149.978 33.9784 144.798 33.9784V34.0562V34.134C149.972 34.134 153.629 34.0024 155.993 33.3539C157.176 33.0293 158.044 32.5729 158.616 31.9305C159.19 31.2862 159.458 30.4636 159.458 29.4234H159.38ZM144.798 34.0562H144.876V31.8797H144.798H144.72V34.0562H144.798ZM144.798 31.8797V31.9575C149.226 31.9575 152.243 31.9034 154.152 31.5442C155.106 31.3646 155.795 31.107 156.247 30.7328C156.702 30.3546 156.909 29.8631 156.909 29.2368H156.831H156.753C156.753 29.8232 156.563 30.2683 156.147 30.613C155.727 30.9618 155.069 31.2133 154.123 31.3913C152.231 31.7472 149.231 31.8019 144.798 31.8019V31.8797ZM156.831 29.2368H156.909C156.909 28.7958 156.799 28.4315 156.595 28.1366C156.391 27.8422 156.097 27.6222 155.738 27.4633C155.022 27.1467 154.036 27.0679 152.94 27.1303C150.746 27.2552 148.072 27.9494 146.144 28.5091L146.166 28.5839L146.188 28.6586C148.115 28.0989 150.774 27.4095 152.949 27.2857C154.037 27.2237 154.994 27.3043 155.675 27.6056C156.015 27.7557 156.283 27.9594 156.467 28.2251C156.65 28.4904 156.753 28.8228 156.753 29.2368H156.831ZM146.166 28.5839L146.241 28.5616L145.712 26.7893L145.637 26.8116L145.563 26.8338L146.091 28.6061L146.166 28.5839ZM145.637 26.8116L145.657 26.8869C148.208 26.2336 150.635 25.518 153.03 24.7715L153.006 24.6972L152.983 24.623C150.59 25.369 148.166 26.0837 145.618 26.7362L145.637 26.8116ZM153.006 24.6972H153.084V23.9821H153.006H152.929V24.6972H153.006ZM153.006 23.9821L152.987 23.9067C150.511 24.5413 148.199 24.4533 146.511 23.6208C144.829 22.7912 143.756 21.218 143.756 18.8518H143.679H143.601C143.601 21.2739 144.704 22.9032 146.443 23.7604C148.175 24.6148 150.527 24.6977 153.026 24.0575L153.006 23.9821ZM143.679 18.8518H143.756C143.756 16.7462 144.616 15.2076 146.021 14.1926C147.43 13.1753 149.394 12.6799 151.607 12.6799V12.6021V12.5243C149.374 12.5243 147.374 13.0238 145.93 14.0665C144.483 15.1114 143.601 16.6976 143.601 18.8518H143.679ZM151.607 12.6021V12.6799C153.461 12.6799 155.372 13.1437 156.817 14.1582L156.862 14.0946L156.907 14.0309C155.429 12.9933 153.484 12.5243 151.607 12.5243V12.6021ZM156.862 14.0946L156.904 14.1603C157.711 13.6479 158.256 13.3571 158.771 13.1932C159.284 13.0297 159.772 12.9908 160.469 12.9908V12.913V12.8352C159.766 12.8352 159.259 12.8741 158.723 13.0449C158.189 13.2152 157.63 13.5151 156.82 14.0289L156.862 14.0946ZM151.638 23.0493V23.1271C153.277 23.1271 154.641 22.8467 155.597 22.1764C156.558 21.5024 157.095 20.4426 157.095 18.914H157.017H156.94C156.94 20.4014 156.42 21.4092 155.507 22.0489C154.59 22.6923 153.264 22.9715 151.638 22.9715V23.0493ZM157.017 18.914H157.095C157.095 17.4006 156.558 16.3486 155.597 15.6787C154.641 15.0124 153.277 14.7319 151.638 14.7319V14.8097V14.8875C153.264 14.8875 154.59 15.1667 155.508 15.8063C156.42 16.4423 156.94 17.4424 156.94 18.914H157.017ZM151.638 14.8097V14.7319C150.015 14.7319 148.644 15.0124 147.677 15.6784C146.704 16.3479 146.15 17.3998 146.15 18.914H146.228H146.306C146.306 17.4432 146.841 16.4429 147.765 15.8066C148.694 15.1666 150.028 14.8875 151.638 14.8875V14.8097ZM146.228 18.914H146.15C146.15 20.4434 146.704 21.503 147.676 22.1766C148.644 22.8466 150.015 23.1271 151.638 23.1271V23.0493V22.9715C150.028 22.9715 148.694 22.6924 147.765 22.0487C146.841 21.4086 146.306 20.4006 146.306 18.914H146.228ZM177.372 21.1216V21.1994H177.449V21.1216H177.372ZM165.183 21.1216V21.0437H165.101L165.105 21.1257L165.183 21.1216ZM175.351 22.956V22.8782H175.289L175.275 22.9379L175.351 22.956ZM177.9 22.956L177.976 22.9738L177.998 22.8782H177.9V22.956ZM165.183 19.1938H165.105V19.2716H165.183V19.1938ZM174.853 19.1938V19.2716H174.931V19.1938H174.853ZM162.665 20.4375H162.742C162.742 17.9666 163.514 16.0288 164.823 14.709C166.131 13.3891 167.983 12.6799 170.158 12.6799V12.6021V12.5243C167.949 12.5243 166.054 13.2453 164.712 14.5995C163.37 15.9536 162.587 17.9336 162.587 20.4375H162.665ZM170.158 12.6021V12.6799C172.318 12.6799 174.1 13.366 175.342 14.6348C176.584 15.9037 177.294 17.7636 177.294 20.1266H177.372H177.449C177.449 17.7323 176.729 15.83 175.453 14.526C174.176 13.2218 172.351 12.5243 170.158 12.5243V12.6021ZM177.372 20.1266H177.294V21.1216H177.372H177.449V20.1266H177.372ZM177.372 21.1216V21.0437H165.183V21.1216V21.1994H177.372V21.1216ZM165.183 21.1216L165.105 21.1257C165.184 22.5964 165.567 23.9681 166.422 24.9731C167.279 25.9808 168.601 26.6095 170.531 26.6095V26.5317V26.4539C168.637 26.4539 167.363 25.8389 166.541 24.8723C165.716 23.9029 165.338 22.5694 165.261 21.1174L165.183 21.1216ZM170.531 26.5317V26.6095C171.819 26.6095 172.901 26.2955 173.733 25.681C174.566 25.0661 175.143 24.1552 175.426 22.9742L175.351 22.956L175.275 22.9379C174.999 24.0888 174.44 24.9658 173.641 25.5558C172.841 26.1461 171.793 26.4539 170.531 26.4539V26.5317ZM175.351 22.956V23.0339H177.9V22.956V22.8782H175.351V22.956ZM177.9 22.956L177.824 22.9383C177.547 24.1253 176.939 25.5408 175.794 26.6587C174.651 27.7749 172.968 28.5993 170.531 28.5993V28.6771V28.755C173.007 28.755 174.729 27.9159 175.902 26.7701C177.074 25.626 177.694 24.1809 177.976 22.9738L177.9 22.956ZM170.531 28.6771V28.5993C167.783 28.5993 165.84 27.6585 164.582 26.1744C163.322 24.6882 162.742 22.6481 162.742 20.4375H162.665H162.587C162.587 22.6732 163.173 24.7529 164.463 26.275C165.755 27.7992 167.745 28.755 170.531 28.755V28.6771ZM165.183 19.1938V19.2716H174.853V19.1938V19.116H165.183V19.1938ZM174.853 19.1938H174.931C174.931 17.9486 174.521 16.8163 173.715 15.995C172.91 15.1733 171.715 14.6697 170.158 14.6697V14.7475V14.8253C171.68 14.8253 172.832 15.3167 173.604 16.104C174.377 16.8918 174.775 17.9827 174.775 19.1938H174.853ZM170.158 14.7475V14.6697C167.073 14.6697 165.105 16.6894 165.105 19.1938H165.183H165.261C165.261 16.7855 167.149 14.8253 170.158 14.8253V14.7475Z" fill="white"/>
</svg>
